<?xml version="1.0" encoding="UTF-8" standalone="no"?>
<!DOCTYPE svg PUBLIC "-//W3C//DTD SVG 1.1//EN"
 "http://www.w3.org/Graphics/SVG/1.1/DTD/svg11.dtd">
<!-- Generated by graphviz version 2.30.1 (20150306.0020)
 -->
<!-- Title: snakemake_dag Pages: 1 -->
<svg width="649pt" height="476pt"
 viewBox="0.00 0.00 649.00 476.00" xmlns="http://www.w3.org/2000/svg" xmlns:xlink="http://www.w3.org/1999/xlink">
<g id="graph0" class="graph" transform="scale(1 1) rotate(0) translate(4 472)">
<title>snakemake_dag</title>
<polygon fill="white" stroke="white" points="-4,5 -4,-472 646,-472 646,5 -4,5"/>
<!-- 0 -->
<g id="node1" class="node"><title>0</title>
<path fill="none" stroke="#8fd856" stroke-width="2" stroke-dasharray="5,2" d="M391,-36C391,-36 361,-36 361,-36 355,-36 349,-30 349,-24 349,-24 349,-12 349,-12 349,-6 355,-0 361,-0 361,-0 391,-0 391,-0 397,-0 403,-6 403,-12 403,-12 403,-24 403,-24 403,-30 397,-36 391,-36"/>
<text text-anchor="middle" x="376" y="-15.5" font-family="sans" font-size="10.00">all</text>
</g>
<!-- 1 -->
<g id="node2" class="node"><title>1</title>
<path fill="none" stroke="#d85656" stroke-width="2" stroke-dasharray="5,2" d="M391,-108C391,-108 361,-108 361,-108 355,-108 349,-102 349,-96 349,-96 349,-84 349,-84 349,-78 355,-72 361,-72 361,-72 391,-72 391,-72 397,-72 403,-78 403,-84 403,-84 403,-96 403,-96 403,-102 397,-108 391,-108"/>
<text text-anchor="middle" x="376" y="-87.5" font-family="sans" font-size="10.00">report</text>
</g>
<!-- 1&#45;&gt;0 -->
<g id="edge1" class="edge"><title>1&#45;&gt;0</title>
<path fill="none" stroke="grey" stroke-width="2" d="M376,-71.6966C376,-63.9827 376,-54.7125 376,-46.1124"/>
<polygon fill="grey" stroke="grey" points="379.5,-46.1043 376,-36.1043 372.5,-46.1044 379.5,-46.1043"/>
</g>
<!-- 2 -->
<g id="node3" class="node"><title>2</title>
<path fill="none" stroke="#567bd8" stroke-width="2" stroke-dasharray="5,2" d="M139.25,-396C139.25,-396 84.75,-396 84.75,-396 78.75,-396 72.75,-390 72.75,-384 72.75,-384 72.75,-372 72.75,-372 72.75,-366 78.75,-360 84.75,-360 84.75,-360 139.25,-360 139.25,-360 145.25,-360 151.25,-366 151.25,-372 151.25,-372 151.25,-384 151.25,-384 151.25,-390 145.25,-396 139.25,-396"/>
<text text-anchor="middle" x="112" y="-375.5" font-family="sans" font-size="10.00">fish_4_genes</text>
</g>
<!-- 2&#45;&gt;1 -->
<g id="edge2" class="edge"><title>2&#45;&gt;1</title>
<path fill="none" stroke="grey" stroke-width="2" d="M100.113,-359.725C93.9875,-349.765 87.1552,-336.727 84,-324 80.1499,-308.47 82.3597,-303.916 84,-288 91.4188,-216.015 98.4676,-182.088 160,-144 216.045,-109.309 293.388,-97.3169 338.707,-93.1769"/>
<polygon fill="grey" stroke="grey" points="339.014,-96.6635 348.689,-92.3453 338.433,-89.6877 339.014,-96.6635"/>
</g>
<!-- 3 -->
<g id="node4" class="node"><title>3</title>
<path fill="none" stroke="#56a9d8" stroke-width="2" stroke-dasharray="5,2" d="M556.25,-252C556.25,-252 409.75,-252 409.75,-252 403.75,-252 397.75,-246 397.75,-240 397.75,-240 397.75,-228 397.75,-228 397.75,-222 403.75,-216 409.75,-216 409.75,-216 556.25,-216 556.25,-216 562.25,-216 568.25,-222 568.25,-228 568.25,-228 568.25,-240 568.25,-240 568.25,-246 562.25,-252 556.25,-252"/>
<text text-anchor="middle" x="483" y="-231.5" font-family="sans" font-size="10.00">summarize_transrate_assembly</text>
</g>
<!-- 3&#45;&gt;1 -->
<g id="edge3" class="edge"><title>3&#45;&gt;1</title>
<path fill="none" stroke="grey" stroke-width="2" d="M461.705,-215.995C450.281,-206.22 436.447,-193.273 426,-180 410.599,-160.432 397.041,-135.533 387.944,-117.05"/>
<polygon fill="grey" stroke="grey" points="391.095,-115.527 383.606,-108.032 384.786,-118.561 391.095,-115.527"/>
</g>
<!-- 5 -->
<g id="node6" class="node"><title>5</title>
<path fill="none" stroke="#d87d56" stroke-width="2" stroke-dasharray="5,2" d="M367,-180C367,-180 323,-180 323,-180 317,-180 311,-174 311,-168 311,-168 311,-156 311,-156 311,-150 317,-144 323,-144 323,-144 367,-144 367,-144 373,-144 379,-150 379,-156 379,-156 379,-168 379,-168 379,-174 373,-180 367,-180"/>
<text text-anchor="middle" x="345" y="-159.5" font-family="sans" font-size="10.00">plot_busco</text>
</g>
<!-- 3&#45;&gt;5 -->
<g id="edge14" class="edge"><title>3&#45;&gt;5</title>
<path fill="none" stroke="grey" stroke-width="2" d="M449.241,-215.876C430.78,-206.512 407.718,-194.814 387.983,-184.803"/>
<polygon fill="grey" stroke="grey" points="389.39,-181.592 378.888,-180.19 386.223,-187.835 389.39,-181.592"/>
</g>
<!-- 4 -->
<g id="node5" class="node"><title>4</title>
<path fill="none" stroke="#68d856" stroke-width="2" stroke-dasharray="5,2" d="M547,-180C547,-180 447,-180 447,-180 441,-180 435,-174 435,-168 435,-168 435,-156 435,-156 435,-150 441,-144 447,-144 447,-144 547,-144 547,-144 553,-144 559,-150 559,-156 559,-156 559,-168 559,-168 559,-174 553,-180 547,-180"/>
<text text-anchor="middle" x="497" y="-159.5" font-family="sans" font-size="10.00">plot_transrate_contigs</text>
</g>
<!-- 4&#45;&gt;1 -->
<g id="edge4" class="edge"><title>4&#45;&gt;1</title>
<path fill="none" stroke="grey" stroke-width="2" d="M467.4,-143.876C450.718,-134.225 429.751,-122.096 412.108,-111.889"/>
<polygon fill="grey" stroke="grey" points="413.634,-108.728 403.225,-106.75 410.129,-114.787 413.634,-108.728"/>
</g>
<!-- 5&#45;&gt;1 -->
<g id="edge5" class="edge"><title>5&#45;&gt;1</title>
<path fill="none" stroke="grey" stroke-width="2" d="M352.663,-143.697C356.192,-135.728 360.456,-126.1 364.369,-117.264"/>
<polygon fill="grey" stroke="grey" points="367.576,-118.665 368.425,-108.104 361.176,-115.831 367.576,-118.665"/>
</g>
<!-- 6 -->
<g id="node7" class="node"><title>6</title>
<path fill="none" stroke="#56d8b9" stroke-width="2" stroke-dasharray="5,2" d="M621,-180C621,-180 589,-180 589,-180 583,-180 577,-174 577,-168 577,-168 577,-156 577,-156 577,-150 583,-144 589,-144 589,-144 621,-144 621,-144 627,-144 633,-150 633,-156 633,-156 633,-168 633,-168 633,-174 627,-180 621,-180"/>
<text text-anchor="middle" x="605" y="-159.5" font-family="sans" font-size="10.00">versions</text>
</g>
<!-- 6&#45;&gt;1 -->
<g id="edge6" class="edge"><title>6&#45;&gt;1</title>
<path fill="none" stroke="grey" stroke-width="2" d="M576.915,-147.528C573.932,-146.269 570.922,-145.067 568,-144 515.221,-124.733 452.095,-108.573 413.017,-99.3377"/>
<polygon fill="grey" stroke="grey" points="413.676,-95.8974 403.142,-97.0303 412.083,-102.714 413.676,-95.8974"/>
</g>
<!-- 7 -->
<g id="node8" class="node"><title>7</title>
<path fill="none" stroke="#68d856" stroke-width="2" stroke-dasharray="5,2" d="M281,-180C281,-180 181,-180 181,-180 175,-180 169,-174 169,-168 169,-168 169,-156 169,-156 169,-150 175,-144 181,-144 181,-144 281,-144 281,-144 287,-144 293,-150 293,-156 293,-156 293,-168 293,-168 293,-174 287,-180 281,-180"/>
<text text-anchor="middle" x="231" y="-159.5" font-family="sans" font-size="10.00">plot_transrate_contigs</text>
</g>
<!-- 7&#45;&gt;1 -->
<g id="edge7" class="edge"><title>7&#45;&gt;1</title>
<path fill="none" stroke="grey" stroke-width="2" d="M266.471,-143.876C288.626,-133.18 317.088,-119.44 339.445,-108.647"/>
<polygon fill="grey" stroke="grey" points="341.132,-111.719 348.616,-104.22 338.089,-105.415 341.132,-111.719"/>
</g>
<!-- 8 -->
<g id="node9" class="node"><title>8</title>
<path fill="none" stroke="#56d892" stroke-width="2" stroke-dasharray="5,2" d="M152,-468C152,-468 72,-468 72,-468 66,-468 60,-462 60,-456 60,-456 60,-444 60,-444 60,-438 66,-432 72,-432 72,-432 152,-432 152,-432 158,-432 164,-438 164,-444 164,-444 164,-456 164,-456 164,-462 158,-468 152,-468"/>
<text text-anchor="middle" x="112" y="-453" font-family="sans" font-size="10.00">trim_and_trinity</text>
<text text-anchor="middle" x="112" y="-442" font-family="sans" font-size="10.00">sample: Macmini2</text>
</g>
<!-- 8&#45;&gt;2 -->
<g id="edge8" class="edge"><title>8&#45;&gt;2</title>
<path fill="none" stroke="grey" stroke-width="2" d="M112,-431.697C112,-423.983 112,-414.712 112,-406.112"/>
<polygon fill="grey" stroke="grey" points="115.5,-406.104 112,-396.104 108.5,-406.104 115.5,-406.104"/>
</g>
<!-- 14 -->
<g id="node15" class="node"><title>14</title>
<path fill="none" stroke="#56d0d8" stroke-width="2" stroke-dasharray="5,2" d="M240,-396C240,-396 182,-396 182,-396 176,-396 170,-390 170,-384 170,-384 170,-372 170,-372 170,-366 176,-360 182,-360 182,-360 240,-360 240,-360 246,-360 252,-366 252,-372 252,-372 252,-384 252,-384 252,-390 246,-396 240,-396"/>
<text text-anchor="middle" x="211" y="-375.5" font-family="sans" font-size="10.00">run_transrate</text>
</g>
<!-- 8&#45;&gt;14 -->
<g id="edge25" class="edge"><title>8&#45;&gt;14</title>
<path fill="none" stroke="grey" stroke-width="2" d="M136.218,-431.876C148.923,-422.893 164.664,-411.763 178.423,-402.034"/>
<polygon fill="grey" stroke="grey" points="180.544,-404.821 186.689,-396.19 176.503,-399.105 180.544,-404.821"/>
</g>
<!-- 17 -->
<g id="node18" class="node"><title>17</title>
<path fill="none" stroke="#b6d856" stroke-width="2" stroke-dasharray="5,2" d="M42,-396C42,-396 12,-396 12,-396 6,-396 0,-390 0,-384 0,-384 0,-372 0,-372 0,-366 6,-360 12,-360 12,-360 42,-360 42,-360 48,-360 54,-366 54,-372 54,-372 54,-384 54,-384 54,-390 48,-396 42,-396"/>
<text text-anchor="middle" x="27" y="-375.5" font-family="sans" font-size="10.00">busco</text>
</g>
<!-- 8&#45;&gt;17 -->
<g id="edge28" class="edge"><title>8&#45;&gt;17</title>
<path fill="none" stroke="grey" stroke-width="2" d="M90.9888,-431.697C80.2837,-422.881 67.1103,-412.032 55.5044,-402.474"/>
<polygon fill="grey" stroke="grey" points="57.7139,-399.76 47.7695,-396.104 53.2639,-405.163 57.7139,-399.76"/>
</g>
<!-- 9 -->
<g id="node10" class="node"><title>9</title>
<path fill="none" stroke="#56d892" stroke-width="2" stroke-dasharray="5,2" d="M406,-468C406,-468 326,-468 326,-468 320,-468 314,-462 314,-456 314,-456 314,-444 314,-444 314,-438 320,-432 326,-432 326,-432 406,-432 406,-432 412,-432 418,-438 418,-444 418,-444 418,-456 418,-456 418,-462 412,-468 406,-468"/>
<text text-anchor="middle" x="366" y="-453" font-family="sans" font-size="10.00">trim_and_trinity</text>
<text text-anchor="middle" x="366" y="-442" font-family="sans" font-size="10.00">sample: Macmini1</text>
</g>
<!-- 9&#45;&gt;2 -->
<g id="edge9" class="edge"><title>9&#45;&gt;2</title>
<path fill="none" stroke="grey" stroke-width="2" d="M313.862,-436.756C274.431,-427.215 218.796,-413.158 161.137,-395.917"/>
<polygon fill="grey" stroke="grey" points="162.075,-392.545 151.491,-393.008 160.054,-399.247 162.075,-392.545"/>
</g>
<!-- 15 -->
<g id="node16" class="node"><title>15</title>
<path fill="none" stroke="#56d0d8" stroke-width="2" stroke-dasharray="5,2" d="M496,-396C496,-396 438,-396 438,-396 432,-396 426,-390 426,-384 426,-384 426,-372 426,-372 426,-366 432,-360 438,-360 438,-360 496,-360 496,-360 502,-360 508,-366 508,-372 508,-372 508,-384 508,-384 508,-390 502,-396 496,-396"/>
<text text-anchor="middle" x="467" y="-375.5" font-family="sans" font-size="10.00">run_transrate</text>
</g>
<!-- 9&#45;&gt;15 -->
<g id="edge26" class="edge"><title>9&#45;&gt;15</title>
<path fill="none" stroke="grey" stroke-width="2" d="M390.707,-431.876C403.669,-422.893 419.728,-411.763 433.765,-402.034"/>
<polygon fill="grey" stroke="grey" points="435.972,-404.763 442.198,-396.19 431.985,-399.009 435.972,-404.763"/>
</g>
<!-- 18 -->
<g id="node19" class="node"><title>18</title>
<path fill="none" stroke="#b6d856" stroke-width="2" stroke-dasharray="5,2" d="M381,-324C381,-324 351,-324 351,-324 345,-324 339,-318 339,-312 339,-312 339,-300 339,-300 339,-294 345,-288 351,-288 351,-288 381,-288 381,-288 387,-288 393,-294 393,-300 393,-300 393,-312 393,-312 393,-318 387,-324 381,-324"/>
<text text-anchor="middle" x="366" y="-303.5" font-family="sans" font-size="10.00">busco</text>
</g>
<!-- 9&#45;&gt;18 -->
<g id="edge29" class="edge"><title>9&#45;&gt;18</title>
<path fill="none" stroke="grey" stroke-width="2" d="M366,-431.871C366,-407.67 366,-363.211 366,-334.393"/>
<polygon fill="grey" stroke="grey" points="369.5,-334.189 366,-324.189 362.5,-334.189 369.5,-334.189"/>
</g>
<!-- 10 -->
<g id="node11" class="node"><title>10</title>
<path fill="none" stroke="#d8cb56" stroke-width="2" stroke-dasharray="5,2" d="M309,-324C309,-324 235,-324 235,-324 229,-324 223,-318 223,-312 223,-312 223,-300 223,-300 223,-294 229,-288 235,-288 235,-288 309,-288 309,-288 315,-288 321,-294 321,-300 321,-300 321,-312 321,-312 321,-318 315,-324 309,-324"/>
<text text-anchor="middle" x="272" y="-303.5" font-family="sans" font-size="10.00">gather_transrate</text>
</g>
<!-- 10&#45;&gt;3 -->
<g id="edge10" class="edge"><title>10&#45;&gt;3</title>
<path fill="none" stroke="grey" stroke-width="2" d="M321.204,-288.676C351.221,-278.718 389.838,-265.907 421.816,-255.298"/>
<polygon fill="grey" stroke="grey" points="423.121,-258.553 431.51,-252.082 420.917,-251.909 423.121,-258.553"/>
</g>
<!-- 10&#45;&gt;5 -->
<g id="edge16" class="edge"><title>10&#45;&gt;5</title>
<path fill="none" stroke="grey" stroke-width="2" d="M271.922,-287.876C272.527,-269.135 275.586,-238.735 288,-216 294.021,-204.974 303.186,-194.967 312.418,-186.692"/>
<polygon fill="grey" stroke="grey" points="314.754,-189.3 320.12,-180.165 310.228,-183.96 314.754,-189.3"/>
</g>
<!-- 10&#45;&gt;7 -->
<g id="edge18" class="edge"><title>10&#45;&gt;7</title>
<path fill="none" stroke="grey" stroke-width="2" d="M266.283,-287.877C262.883,-277.528 258.555,-264.049 255,-252 248.925,-231.408 242.626,-207.957 238.006,-190.298"/>
<polygon fill="grey" stroke="grey" points="241.266,-188.927 235.364,-180.129 234.491,-190.688 241.266,-188.927"/>
</g>
<!-- 11 -->
<g id="node12" class="node"><title>11</title>
<path fill="none" stroke="#d8cb56" stroke-width="2" stroke-dasharray="5,2" d="M629,-324C629,-324 555,-324 555,-324 549,-324 543,-318 543,-312 543,-312 543,-300 543,-300 543,-294 549,-288 555,-288 555,-288 629,-288 629,-288 635,-288 641,-294 641,-300 641,-300 641,-312 641,-312 641,-318 635,-324 629,-324"/>
<text text-anchor="middle" x="592" y="-303.5" font-family="sans" font-size="10.00">gather_transrate</text>
</g>
<!-- 11&#45;&gt;3 -->
<g id="edge11" class="edge"><title>11&#45;&gt;3</title>
<path fill="none" stroke="grey" stroke-width="2" d="M565.336,-287.876C551.216,-278.808 533.689,-267.552 518.439,-257.759"/>
<polygon fill="grey" stroke="grey" points="520.073,-254.648 509.767,-252.19 516.29,-260.538 520.073,-254.648"/>
</g>
<!-- 11&#45;&gt;4 -->
<g id="edge12" class="edge"><title>11&#45;&gt;4</title>
<path fill="none" stroke="grey" stroke-width="2" d="M602.624,-287.933C612.928,-268.969 625.105,-238.112 611,-216 601.047,-200.396 585.179,-189.315 568.408,-181.471"/>
<polygon fill="grey" stroke="grey" points="569.599,-178.173 559.029,-177.439 566.834,-184.604 569.599,-178.173"/>
</g>
<!-- 11&#45;&gt;5 -->
<g id="edge17" class="edge"><title>11&#45;&gt;5</title>
<path fill="none" stroke="grey" stroke-width="2" d="M594.279,-287.822C595.892,-267.875 595.178,-235.257 577,-216 573.738,-212.544 455.247,-186.662 388.902,-172.387"/>
<polygon fill="grey" stroke="grey" points="389.632,-168.964 379.119,-170.285 388.161,-175.808 389.632,-168.964"/>
</g>
<!-- 12 -->
<g id="node13" class="node"><title>12</title>
<path fill="none" stroke="#d8a456" stroke-width="2" stroke-dasharray="5,2" d="M178,-252C178,-252 120,-252 120,-252 114,-252 108,-246 108,-240 108,-240 108,-228 108,-228 108,-222 114,-216 120,-216 120,-216 178,-216 178,-216 184,-216 190,-222 190,-228 190,-228 190,-240 190,-240 190,-246 184,-252 178,-252"/>
<text text-anchor="middle" x="149" y="-231.5" font-family="sans" font-size="10.00">gather_busco</text>
</g>
<!-- 12&#45;&gt;5 -->
<g id="edge13" class="edge"><title>12&#45;&gt;5</title>
<path fill="none" stroke="grey" stroke-width="2" d="M190.082,-219.304C218.872,-209.585 258.442,-195.988 301.299,-180.193"/>
<polygon fill="grey" stroke="grey" points="302.621,-183.436 310.784,-176.681 300.19,-176.871 302.621,-183.436"/>
</g>
<!-- 13 -->
<g id="node14" class="node"><title>13</title>
<path fill="none" stroke="#d8a456" stroke-width="2" stroke-dasharray="5,2" d="M367,-252C367,-252 309,-252 309,-252 303,-252 297,-246 297,-240 297,-240 297,-228 297,-228 297,-222 303,-216 309,-216 309,-216 367,-216 367,-216 373,-216 379,-222 379,-228 379,-228 379,-240 379,-240 379,-246 373,-252 367,-252"/>
<text text-anchor="middle" x="338" y="-231.5" font-family="sans" font-size="10.00">gather_busco</text>
</g>
<!-- 13&#45;&gt;5 -->
<g id="edge15" class="edge"><title>13&#45;&gt;5</title>
<path fill="none" stroke="grey" stroke-width="2" d="M339.73,-215.697C340.502,-207.983 341.429,-198.712 342.289,-190.112"/>
<polygon fill="grey" stroke="grey" points="345.777,-190.403 343.29,-180.104 338.812,-189.706 345.777,-190.403"/>
</g>
<!-- 14&#45;&gt;10 -->
<g id="edge19" class="edge"><title>14&#45;&gt;10</title>
<path fill="none" stroke="grey" stroke-width="2" d="M226.079,-359.697C233.392,-351.305 242.31,-341.07 250.335,-331.861"/>
<polygon fill="grey" stroke="grey" points="253.164,-333.943 257.095,-324.104 247.886,-329.344 253.164,-333.943"/>
</g>
<!-- 16 -->
<g id="node17" class="node"><title>16</title>
<path fill="none" stroke="#56d86b" stroke-width="2" stroke-dasharray="5,2" d="M193,-324C193,-324 105,-324 105,-324 99,-324 93,-318 93,-312 93,-312 93,-300 93,-300 93,-294 99,-288 105,-288 105,-288 193,-288 193,-288 199,-288 205,-294 205,-300 205,-300 205,-312 205,-312 205,-318 199,-324 193,-324"/>
<text text-anchor="middle" x="149" y="-303.5" font-family="sans" font-size="10.00">busco_on_transrate</text>
</g>
<!-- 14&#45;&gt;16 -->
<g id="edge27" class="edge"><title>14&#45;&gt;16</title>
<path fill="none" stroke="grey" stroke-width="2" d="M195.674,-359.697C188.241,-351.305 179.177,-341.07 171.02,-331.861"/>
<polygon fill="grey" stroke="grey" points="173.4,-329.27 164.15,-324.104 168.16,-333.911 173.4,-329.27"/>
</g>
<!-- 15&#45;&gt;11 -->
<g id="edge20" class="edge"><title>15&#45;&gt;11</title>
<path fill="none" stroke="grey" stroke-width="2" d="M497.578,-359.876C514.074,-350.639 534.624,-339.131 552.336,-329.212"/>
<polygon fill="grey" stroke="grey" points="554.289,-332.13 561.304,-324.19 550.869,-326.022 554.289,-332.13"/>
</g>
<!-- 19 -->
<g id="node20" class="node"><title>19</title>
<path fill="none" stroke="#56d86b" stroke-width="2" stroke-dasharray="5,2" d="M511,-324C511,-324 423,-324 423,-324 417,-324 411,-318 411,-312 411,-312 411,-300 411,-300 411,-294 417,-288 423,-288 423,-288 511,-288 511,-288 517,-288 523,-294 523,-300 523,-300 523,-312 523,-312 523,-318 517,-324 511,-324"/>
<text text-anchor="middle" x="467" y="-303.5" font-family="sans" font-size="10.00">busco_on_transrate</text>
</g>
<!-- 15&#45;&gt;19 -->
<g id="edge30" class="edge"><title>15&#45;&gt;19</title>
<path fill="none" stroke="grey" stroke-width="2" d="M467,-359.697C467,-351.983 467,-342.712 467,-334.112"/>
<polygon fill="grey" stroke="grey" points="470.5,-334.104 467,-324.104 463.5,-334.104 470.5,-334.104"/>
</g>
<!-- 16&#45;&gt;12 -->
<g id="edge21" class="edge"><title>16&#45;&gt;12</title>
<path fill="none" stroke="grey" stroke-width="2" d="M149,-287.697C149,-279.983 149,-270.712 149,-262.112"/>
<polygon fill="grey" stroke="grey" points="152.5,-262.104 149,-252.104 145.5,-262.104 152.5,-262.104"/>
</g>
<!-- 17&#45;&gt;12 -->
<g id="edge22" class="edge"><title>17&#45;&gt;12</title>
<path fill="none" stroke="grey" stroke-width="2" d="M35.8489,-359.823C45.9965,-341.037 63.8512,-310.597 84,-288 93.498,-277.348 105.251,-267.083 116.141,-258.471"/>
<polygon fill="grey" stroke="grey" points="118.46,-261.102 124.248,-252.228 114.189,-255.556 118.46,-261.102"/>
</g>
<!-- 18&#45;&gt;13 -->
<g id="edge23" class="edge"><title>18&#45;&gt;13</title>
<path fill="none" stroke="grey" stroke-width="2" d="M359.079,-287.697C355.925,-279.813 352.122,-270.304 348.619,-261.546"/>
<polygon fill="grey" stroke="grey" points="351.805,-260.089 344.842,-252.104 345.306,-262.689 351.805,-260.089"/>
</g>
<!-- 19&#45;&gt;13 -->
<g id="edge24" class="edge"><title>19&#45;&gt;13</title>
<path fill="none" stroke="grey" stroke-width="2" d="M435.443,-287.876C418.342,-278.596 397.018,-267.025 378.681,-257.075"/>
<polygon fill="grey" stroke="grey" points="380.137,-253.883 369.678,-252.19 376.798,-260.035 380.137,-253.883"/>
</g>
</g>
</svg>
