<?xml version="1.0" encoding="UTF-8" standalone="no"?>
<!DOCTYPE svg PUBLIC "-//W3C//DTD SVG 1.1//EN"
 "http://www.w3.org/Graphics/SVG/1.1/DTD/svg11.dtd">
<!-- Generated by graphviz version 2.30.1 (20180420.1509)
 -->
<!-- Title: snakemake_dag Pages: 1 -->
<svg width="726pt" height="764pt"
 viewBox="0.00 0.00 726.00 764.00" xmlns="http://www.w3.org/2000/svg" xmlns:xlink="http://www.w3.org/1999/xlink">
<g id="graph0" class="graph" transform="scale(1 1) rotate(0) translate(4 760)">
<title>snakemake_dag</title>
<polygon fill="white" stroke="white" points="-4,5 -4,-760 723,-760 723,5 -4,5"/>
<!-- 0 -->
<g id="node1" class="node"><title>0</title>
<path fill="none" stroke="#d88d56" stroke-width="2" d="M469,-36C469,-36 439,-36 439,-36 433,-36 427,-30 427,-24 427,-24 427,-12 427,-12 427,-6 433,-0 439,-0 439,-0 469,-0 469,-0 475,-0 481,-6 481,-12 481,-12 481,-24 481,-24 481,-30 475,-36 469,-36"/>
<text text-anchor="middle" x="454" y="-15.5" font-family="sans" font-size="10.00">all</text>
</g>
<!-- 1 -->
<g id="node2" class="node"><title>1</title>
<path fill="none" stroke="#56d882" stroke-width="2" d="M469,-108C469,-108 439,-108 439,-108 433,-108 427,-102 427,-96 427,-96 427,-84 427,-84 427,-78 433,-72 439,-72 439,-72 469,-72 469,-72 475,-72 481,-78 481,-84 481,-84 481,-96 481,-96 481,-102 475,-108 469,-108"/>
<text text-anchor="middle" x="454" y="-87.5" font-family="sans" font-size="10.00">report</text>
</g>
<!-- 1&#45;&gt;0 -->
<g id="edge1" class="edge"><title>1&#45;&gt;0</title>
<path fill="none" stroke="grey" stroke-width="2" d="M454,-71.6966C454,-63.9827 454,-54.7125 454,-46.1124"/>
<polygon fill="grey" stroke="grey" points="457.5,-46.1043 454,-36.1043 450.5,-46.1044 457.5,-46.1043"/>
</g>
<!-- 2 -->
<g id="node3" class="node"><title>2</title>
<path fill="none" stroke="#56d89a" stroke-width="2" d="M589.25,-180C589.25,-180 500.75,-180 500.75,-180 494.75,-180 488.75,-174 488.75,-168 488.75,-168 488.75,-156 488.75,-156 488.75,-150 494.75,-144 500.75,-144 500.75,-144 589.25,-144 589.25,-144 595.25,-144 601.25,-150 601.25,-156 601.25,-156 601.25,-168 601.25,-168 601.25,-174 595.25,-180 589.25,-180"/>
<text text-anchor="middle" x="545" y="-159.5" font-family="sans" font-size="10.00">plot_transrate_contigs</text>
</g>
<!-- 2&#45;&gt;1 -->
<g id="edge2" class="edge"><title>2&#45;&gt;1</title>
<path fill="none" stroke="grey" stroke-width="2" d="M522.506,-143.697C511.045,-134.881 496.942,-124.032 484.516,-114.474"/>
<polygon fill="grey" stroke="grey" points="486.296,-111.427 476.236,-108.104 482.028,-116.976 486.296,-111.427"/>
</g>
<!-- 3 -->
<g id="node4" class="node"><title>3</title>
<path fill="none" stroke="#61d856" stroke-width="2" d="M519.25,-252C519.25,-252 388.75,-252 388.75,-252 382.75,-252 376.75,-246 376.75,-240 376.75,-240 376.75,-228 376.75,-228 376.75,-222 382.75,-216 388.75,-216 388.75,-216 519.25,-216 519.25,-216 525.25,-216 531.25,-222 531.25,-228 531.25,-228 531.25,-240 531.25,-240 531.25,-246 525.25,-252 519.25,-252"/>
<text text-anchor="middle" x="454" y="-231.5" font-family="sans" font-size="10.00">summarize_transrate_assembly</text>
</g>
<!-- 3&#45;&gt;1 -->
<g id="edge3" class="edge"><title>3&#45;&gt;1</title>
<path fill="none" stroke="grey" stroke-width="2" d="M454,-215.871C454,-191.67 454,-147.211 454,-118.393"/>
<polygon fill="grey" stroke="grey" points="457.5,-118.189 454,-108.189 450.5,-118.189 457.5,-118.189"/>
</g>
<!-- 5 -->
<g id="node6" class="node"><title>5</title>
<path fill="none" stroke="#56d8d0" stroke-width="2" d="M379,-180C379,-180 339,-180 339,-180 333,-180 327,-174 327,-168 327,-168 327,-156 327,-156 327,-150 333,-144 339,-144 339,-144 379,-144 379,-144 385,-144 391,-150 391,-156 391,-156 391,-168 391,-168 391,-174 385,-180 379,-180"/>
<text text-anchor="middle" x="359" y="-159.5" font-family="sans" font-size="10.00">plot_busco</text>
</g>
<!-- 3&#45;&gt;5 -->
<g id="edge16" class="edge"><title>3&#45;&gt;5</title>
<path fill="none" stroke="grey" stroke-width="2" d="M430.517,-215.697C418.437,-206.796 403.546,-195.823 390.484,-186.199"/>
<polygon fill="grey" stroke="grey" points="392.34,-183.219 382.213,-180.104 388.187,-188.854 392.34,-183.219"/>
</g>
<!-- 4 -->
<g id="node5" class="node"><title>4</title>
<path fill="none" stroke="#56a9d8" stroke-width="2" stroke-dasharray="5,2" d="M706,-180C706,-180 676,-180 676,-180 670,-180 664,-174 664,-168 664,-168 664,-156 664,-156 664,-150 670,-144 676,-144 676,-144 706,-144 706,-144 712,-144 718,-150 718,-156 718,-156 718,-168 718,-168 718,-174 712,-180 706,-180"/>
<text text-anchor="middle" x="691" y="-159.5" font-family="sans" font-size="10.00">versions</text>
</g>
<!-- 4&#45;&gt;1 -->
<g id="edge4" class="edge"><title>4&#45;&gt;1</title>
<path fill="none" stroke="grey" stroke-width="2" d="M663.84,-149.164C659.258,-147.334 654.522,-145.542 650,-144 595.521,-125.426 530.8,-108.984 491.066,-99.5111"/>
<polygon fill="grey" stroke="grey" points="491.818,-96.0924 481.281,-97.1988 490.208,-102.905 491.818,-96.0924"/>
</g>
<!-- 5&#45;&gt;1 -->
<g id="edge5" class="edge"><title>5&#45;&gt;1</title>
<path fill="none" stroke="grey" stroke-width="2" d="M382.483,-143.697C394.563,-134.796 409.454,-123.823 422.516,-114.199"/>
<polygon fill="grey" stroke="grey" points="424.813,-116.854 430.787,-108.104 420.66,-111.219 424.813,-116.854"/>
</g>
<!-- 6 -->
<g id="node7" class="node"><title>6</title>
<path fill="none" stroke="#97d856" stroke-width="2" d="M74,-252C74,-252 12,-252 12,-252 6,-252 0,-246 0,-240 0,-240 0,-228 0,-228 0,-222 6,-216 12,-216 12,-216 74,-216 74,-216 80,-216 86,-222 86,-228 86,-228 86,-240 86,-240 86,-246 80,-252 74,-252"/>
<text text-anchor="middle" x="43" y="-231.5" font-family="sans" font-size="10.00">trinity_on_rRNA</text>
</g>
<!-- 6&#45;&gt;1 -->
<g id="edge6" class="edge"><title>6&#45;&gt;1</title>
<path fill="none" stroke="grey" stroke-width="2" d="M61.3193,-215.961C84.3757,-195.518 126.059,-161.781 168,-144 252.298,-108.262 360.653,-96.5609 416.701,-92.7755"/>
<polygon fill="grey" stroke="grey" points="417.104,-96.2572 426.866,-92.1379 416.666,-89.2709 417.104,-96.2572"/>
</g>
<!-- 7 -->
<g id="node8" class="node"><title>7</title>
<path fill="none" stroke="#56d89a" stroke-width="2" d="M278.25,-180C278.25,-180 189.75,-180 189.75,-180 183.75,-180 177.75,-174 177.75,-168 177.75,-168 177.75,-156 177.75,-156 177.75,-150 183.75,-144 189.75,-144 189.75,-144 278.25,-144 278.25,-144 284.25,-144 290.25,-150 290.25,-156 290.25,-156 290.25,-168 290.25,-168 290.25,-174 284.25,-180 278.25,-180"/>
<text text-anchor="middle" x="234" y="-159.5" font-family="sans" font-size="10.00">plot_transrate_contigs</text>
</g>
<!-- 7&#45;&gt;1 -->
<g id="edge7" class="edge"><title>7&#45;&gt;1</title>
<path fill="none" stroke="grey" stroke-width="2" d="M287.537,-143.966C327.59,-131.221 381.347,-114.117 416.797,-102.837"/>
<polygon fill="grey" stroke="grey" points="418.262,-106.044 426.73,-99.6769 416.139,-99.3738 418.262,-106.044"/>
</g>
<!-- 8 -->
<g id="node9" class="node"><title>8</title>
<path fill="none" stroke="#97d856" stroke-width="2" d="M625,-468C625,-468 563,-468 563,-468 557,-468 551,-462 551,-456 551,-456 551,-444 551,-444 551,-438 557,-432 563,-432 563,-432 625,-432 625,-432 631,-432 637,-438 637,-444 637,-444 637,-456 637,-456 637,-462 631,-468 625,-468"/>
<text text-anchor="middle" x="594" y="-447.5" font-family="sans" font-size="10.00">trinity_on_rRNA</text>
</g>
<!-- 8&#45;&gt;1 -->
<g id="edge8" class="edge"><title>8&#45;&gt;1</title>
<path fill="none" stroke="grey" stroke-width="2" d="M602.499,-431.993C614.772,-405.822 636,-353.79 636,-307 636,-307 636,-307 636,-233 636,-191.791 638.502,-173.763 610,-144 578.804,-111.424 526.851,-98.8702 491.548,-94.0327"/>
<polygon fill="grey" stroke="grey" points="491.518,-90.5032 481.168,-92.7655 490.67,-97.4516 491.518,-90.5032"/>
</g>
<!-- 9 -->
<g id="node10" class="node"><title>9</title>
<path fill="none" stroke="#56d863" stroke-width="2" d="M587.25,-324C587.25,-324 524.75,-324 524.75,-324 518.75,-324 512.75,-318 512.75,-312 512.75,-312 512.75,-300 512.75,-300 512.75,-294 518.75,-288 524.75,-288 524.75,-288 587.25,-288 587.25,-288 593.25,-288 599.25,-294 599.25,-300 599.25,-300 599.25,-312 599.25,-312 599.25,-318 593.25,-324 587.25,-324"/>
<text text-anchor="middle" x="556" y="-303.5" font-family="sans" font-size="10.00">gather_transrate</text>
</g>
<!-- 9&#45;&gt;2 -->
<g id="edge9" class="edge"><title>9&#45;&gt;2</title>
<path fill="none" stroke="grey" stroke-width="2" d="M564.057,-287.821C571.438,-269.81 580.326,-240.742 574,-216 571.621,-206.697 567.235,-197.27 562.582,-188.997"/>
<polygon fill="grey" stroke="grey" points="565.457,-186.986 557.307,-180.216 559.456,-190.59 565.457,-186.986"/>
</g>
<!-- 9&#45;&gt;3 -->
<g id="edge10" class="edge"><title>9&#45;&gt;3</title>
<path fill="none" stroke="grey" stroke-width="2" d="M531.048,-287.876C517.958,-278.893 501.74,-267.763 487.564,-258.034"/>
<polygon fill="grey" stroke="grey" points="489.274,-254.962 479.048,-252.19 485.313,-260.734 489.274,-254.962"/>
</g>
<!-- 9&#45;&gt;5 -->
<g id="edge15" class="edge"><title>9&#45;&gt;5</title>
<path fill="none" stroke="grey" stroke-width="2" d="M557.856,-287.988C559.024,-268.202 557.731,-235.737 540,-216 521.5,-195.407 448.471,-178.895 401.02,-170.057"/>
<polygon fill="grey" stroke="grey" points="401.485,-166.584 391.02,-168.237 400.231,-173.471 401.485,-166.584"/>
</g>
<!-- 10 -->
<g id="node11" class="node"><title>10</title>
<path fill="none" stroke="#56d863" stroke-width="2" d="M308.25,-324C308.25,-324 245.75,-324 245.75,-324 239.75,-324 233.75,-318 233.75,-312 233.75,-312 233.75,-300 233.75,-300 233.75,-294 239.75,-288 245.75,-288 245.75,-288 308.25,-288 308.25,-288 314.25,-288 320.25,-294 320.25,-300 320.25,-300 320.25,-312 320.25,-312 320.25,-318 314.25,-324 308.25,-324"/>
<text text-anchor="middle" x="277" y="-303.5" font-family="sans" font-size="10.00">gather_transrate</text>
</g>
<!-- 10&#45;&gt;3 -->
<g id="edge11" class="edge"><title>10&#45;&gt;3</title>
<path fill="none" stroke="grey" stroke-width="2" d="M320.299,-287.876C344.711,-278.222 375.396,-266.087 401.21,-255.878"/>
<polygon fill="grey" stroke="grey" points="402.83,-259.001 410.842,-252.068 400.255,-252.491 402.83,-259.001"/>
</g>
<!-- 10&#45;&gt;5 -->
<g id="edge14" class="edge"><title>10&#45;&gt;5</title>
<path fill="none" stroke="grey" stroke-width="2" d="M271.44,-287.713C266.446,-268.83 261.622,-238.305 274,-216 283.47,-198.936 300.97,-186.648 317.641,-178.228"/>
<polygon fill="grey" stroke="grey" points="319.2,-181.363 326.762,-173.942 316.222,-175.027 319.2,-181.363"/>
</g>
<!-- 10&#45;&gt;7 -->
<g id="edge18" class="edge"><title>10&#45;&gt;7</title>
<path fill="none" stroke="grey" stroke-width="2" d="M261.8,-287.639C254.157,-277.856 245.568,-265.014 241,-252 234.038,-232.166 232.488,-208.369 232.57,-190.374"/>
<polygon fill="grey" stroke="grey" points="236.071,-190.338 232.787,-180.265 229.073,-190.187 236.071,-190.338"/>
</g>
<!-- 11 -->
<g id="node12" class="node"><title>11</title>
<path fill="none" stroke="#b6d856" stroke-width="2" d="M176.25,-252C176.25,-252 125.75,-252 125.75,-252 119.75,-252 113.75,-246 113.75,-240 113.75,-240 113.75,-228 113.75,-228 113.75,-222 119.75,-216 125.75,-216 125.75,-216 176.25,-216 176.25,-216 182.25,-216 188.25,-222 188.25,-228 188.25,-228 188.25,-240 188.25,-240 188.25,-246 182.25,-252 176.25,-252"/>
<text text-anchor="middle" x="151" y="-231.5" font-family="sans" font-size="10.00">gather_busco</text>
</g>
<!-- 11&#45;&gt;5 -->
<g id="edge12" class="edge"><title>11&#45;&gt;5</title>
<path fill="none" stroke="grey" stroke-width="2" d="M188.667,-220.324C224.884,-208.135 279.519,-189.749 317.093,-177.103"/>
<polygon fill="grey" stroke="grey" points="318.371,-180.366 326.733,-173.859 316.139,-173.732 318.371,-180.366"/>
</g>
<!-- 12 -->
<g id="node13" class="node"><title>12</title>
<path fill="none" stroke="#b6d856" stroke-width="2" d="M346.25,-252C346.25,-252 295.75,-252 295.75,-252 289.75,-252 283.75,-246 283.75,-240 283.75,-240 283.75,-228 283.75,-228 283.75,-222 289.75,-216 295.75,-216 295.75,-216 346.25,-216 346.25,-216 352.25,-216 358.25,-222 358.25,-228 358.25,-228 358.25,-240 358.25,-240 358.25,-246 352.25,-252 346.25,-252"/>
<text text-anchor="middle" x="321" y="-231.5" font-family="sans" font-size="10.00">gather_busco</text>
</g>
<!-- 12&#45;&gt;5 -->
<g id="edge13" class="edge"><title>12&#45;&gt;5</title>
<path fill="none" stroke="grey" stroke-width="2" d="M330.393,-215.697C334.765,-207.644 340.057,-197.894 344.895,-188.982"/>
<polygon fill="grey" stroke="grey" points="348.02,-190.563 349.715,-180.104 341.868,-187.223 348.02,-190.563"/>
</g>
<!-- 13 -->
<g id="node14" class="node"><title>13</title>
<path fill="none" stroke="#ced856" stroke-width="2" stroke-dasharray="5,2" d="M124,-540C124,-540 32,-540 32,-540 26,-540 20,-534 20,-528 20,-528 20,-516 20,-516 20,-510 26,-504 32,-504 32,-504 124,-504 124,-504 130,-504 136,-510 136,-516 136,-516 136,-528 136,-528 136,-534 130,-540 124,-540"/>
<text text-anchor="middle" x="78" y="-519.5" font-family="sans" font-size="10.00">rename_remove_rRNA</text>
</g>
<!-- 13&#45;&gt;6 -->
<g id="edge17" class="edge"><title>13&#45;&gt;6</title>
<path fill="none" stroke="grey" stroke-width="2" d="M69.9918,-503.729C65.6557,-493.555 60.6557,-480.305 58,-468 42.2331,-394.945 41.3967,-306.262 42.1629,-262.355"/>
<polygon fill="grey" stroke="grey" points="45.6655,-262.268 42.3841,-252.194 38.6672,-262.116 45.6655,-262.268"/>
</g>
<!-- 24 -->
<g id="node25" class="node"><title>24</title>
<path fill="none" stroke="#d87556" stroke-width="2" stroke-dasharray="5,2" d="M152.25,-468C152.25,-468 79.75,-468 79.75,-468 73.75,-468 67.75,-462 67.75,-456 67.75,-456 67.75,-444 67.75,-444 67.75,-438 73.75,-432 79.75,-432 79.75,-432 152.25,-432 152.25,-432 158.25,-432 164.25,-438 164.25,-444 164.25,-444 164.25,-456 164.25,-456 164.25,-462 158.25,-468 152.25,-468"/>
<text text-anchor="middle" x="116" y="-447.5" font-family="sans" font-size="10.00">trinity_on_trimmed</text>
</g>
<!-- 13&#45;&gt;24 -->
<g id="edge37" class="edge"><title>13&#45;&gt;24</title>
<path fill="none" stroke="grey" stroke-width="2" d="M87.3933,-503.697C91.7649,-495.644 97.0573,-485.894 101.895,-476.982"/>
<polygon fill="grey" stroke="grey" points="105.02,-478.563 106.715,-468.104 98.8678,-475.223 105.02,-478.563"/>
</g>
<!-- 14 -->
<g id="node15" class="node"><title>14</title>
<path fill="none" stroke="#ced856" stroke-width="2" stroke-dasharray="5,2" d="M564,-540C564,-540 472,-540 472,-540 466,-540 460,-534 460,-528 460,-528 460,-516 460,-516 460,-510 466,-504 472,-504 472,-504 564,-504 564,-504 570,-504 576,-510 576,-516 576,-516 576,-528 576,-528 576,-534 570,-540 564,-540"/>
<text text-anchor="middle" x="518" y="-519.5" font-family="sans" font-size="10.00">rename_remove_rRNA</text>
</g>
<!-- 14&#45;&gt;8 -->
<g id="edge19" class="edge"><title>14&#45;&gt;8</title>
<path fill="none" stroke="grey" stroke-width="2" d="M536.787,-503.697C546.174,-495.05 557.684,-484.449 567.913,-475.027"/>
<polygon fill="grey" stroke="grey" points="570.445,-477.454 575.43,-468.104 565.703,-472.305 570.445,-477.454"/>
</g>
<!-- 23 -->
<g id="node24" class="node"><title>23</title>
<path fill="none" stroke="#d87556" stroke-width="2" stroke-dasharray="5,2" d="M479.25,-468C479.25,-468 406.75,-468 406.75,-468 400.75,-468 394.75,-462 394.75,-456 394.75,-456 394.75,-444 394.75,-444 394.75,-438 400.75,-432 406.75,-432 406.75,-432 479.25,-432 479.25,-432 485.25,-432 491.25,-438 491.25,-444 491.25,-444 491.25,-456 491.25,-456 491.25,-462 485.25,-468 479.25,-468"/>
<text text-anchor="middle" x="443" y="-447.5" font-family="sans" font-size="10.00">trinity_on_trimmed</text>
</g>
<!-- 14&#45;&gt;23 -->
<g id="edge36" class="edge"><title>14&#45;&gt;23</title>
<path fill="none" stroke="grey" stroke-width="2" d="M499.461,-503.697C490.197,-495.05 478.838,-484.449 468.743,-475.027"/>
<polygon fill="grey" stroke="grey" points="471.025,-472.369 461.326,-468.104 466.249,-477.486 471.025,-472.369"/>
</g>
<!-- 15 -->
<g id="node16" class="node"><title>15</title>
<path fill="none" stroke="#d85656" stroke-width="2" d="M468,-396C468,-396 418,-396 418,-396 412,-396 406,-390 406,-384 406,-384 406,-372 406,-372 406,-366 412,-360 418,-360 418,-360 468,-360 468,-360 474,-360 480,-366 480,-372 480,-372 480,-384 480,-384 480,-390 474,-396 468,-396"/>
<text text-anchor="middle" x="443" y="-375.5" font-family="sans" font-size="10.00">run_transrate</text>
</g>
<!-- 15&#45;&gt;9 -->
<g id="edge20" class="edge"><title>15&#45;&gt;9</title>
<path fill="none" stroke="grey" stroke-width="2" d="M470.643,-359.876C485.418,-350.724 503.791,-339.342 519.703,-329.485"/>
<polygon fill="grey" stroke="grey" points="521.593,-332.431 528.251,-324.19 517.907,-326.481 521.593,-332.431"/>
</g>
<!-- 20 -->
<g id="node21" class="node"><title>20</title>
<path fill="none" stroke="#d8c356" stroke-width="2" d="M480,-324C480,-324 402,-324 402,-324 396,-324 390,-318 390,-312 390,-312 390,-300 390,-300 390,-294 396,-288 402,-288 402,-288 480,-288 480,-288 486,-288 492,-294 492,-300 492,-300 492,-312 492,-312 492,-318 486,-324 480,-324"/>
<text text-anchor="middle" x="441" y="-303.5" font-family="sans" font-size="10.00">busco_on_transrate</text>
</g>
<!-- 15&#45;&gt;20 -->
<g id="edge33" class="edge"><title>15&#45;&gt;20</title>
<path fill="none" stroke="grey" stroke-width="2" d="M442.506,-359.697C442.285,-351.983 442.02,-342.712 441.775,-334.112"/>
<polygon fill="grey" stroke="grey" points="445.273,-334 441.489,-324.104 438.276,-334.2 445.273,-334"/>
</g>
<!-- 16 -->
<g id="node17" class="node"><title>16</title>
<path fill="none" stroke="#d85656" stroke-width="2" d="M201,-396C201,-396 151,-396 151,-396 145,-396 139,-390 139,-384 139,-384 139,-372 139,-372 139,-366 145,-360 151,-360 151,-360 201,-360 201,-360 207,-360 213,-366 213,-372 213,-372 213,-384 213,-384 213,-390 207,-396 201,-396"/>
<text text-anchor="middle" x="176" y="-375.5" font-family="sans" font-size="10.00">run_transrate</text>
</g>
<!-- 16&#45;&gt;10 -->
<g id="edge21" class="edge"><title>16&#45;&gt;10</title>
<path fill="none" stroke="grey" stroke-width="2" d="M200.707,-359.876C213.669,-350.893 229.728,-339.763 243.765,-330.034"/>
<polygon fill="grey" stroke="grey" points="245.972,-332.763 252.198,-324.19 241.985,-327.009 245.972,-332.763"/>
</g>
<!-- 17 -->
<g id="node18" class="node"><title>17</title>
<path fill="none" stroke="#d8c356" stroke-width="2" d="M203,-324C203,-324 125,-324 125,-324 119,-324 113,-318 113,-312 113,-312 113,-300 113,-300 113,-294 119,-288 125,-288 125,-288 203,-288 203,-288 209,-288 215,-294 215,-300 215,-300 215,-312 215,-312 215,-318 209,-324 203,-324"/>
<text text-anchor="middle" x="164" y="-303.5" font-family="sans" font-size="10.00">busco_on_transrate</text>
</g>
<!-- 16&#45;&gt;17 -->
<g id="edge30" class="edge"><title>16&#45;&gt;17</title>
<path fill="none" stroke="grey" stroke-width="2" d="M173.034,-359.697C171.711,-351.983 170.122,-342.712 168.648,-334.112"/>
<polygon fill="grey" stroke="grey" points="172.072,-333.369 166.932,-324.104 165.172,-334.552 172.072,-333.369"/>
</g>
<!-- 17&#45;&gt;11 -->
<g id="edge22" class="edge"><title>17&#45;&gt;11</title>
<path fill="none" stroke="grey" stroke-width="2" d="M160.787,-287.697C159.354,-279.983 157.632,-270.712 156.035,-262.112"/>
<polygon fill="grey" stroke="grey" points="159.444,-261.297 154.177,-252.104 152.561,-262.575 159.444,-261.297"/>
</g>
<!-- 18 -->
<g id="node19" class="node"><title>18</title>
<path fill="none" stroke="#d8ac56" stroke-width="2" d="M109,-396C109,-396 79,-396 79,-396 73,-396 67,-390 67,-384 67,-384 67,-372 67,-372 67,-366 73,-360 79,-360 79,-360 109,-360 109,-360 115,-360 121,-366 121,-372 121,-372 121,-384 121,-384 121,-390 115,-396 109,-396"/>
<text text-anchor="middle" x="94" y="-375.5" font-family="sans" font-size="10.00">busco</text>
</g>
<!-- 18&#45;&gt;11 -->
<g id="edge23" class="edge"><title>18&#45;&gt;11</title>
<path fill="none" stroke="grey" stroke-width="2" d="M92.9295,-359.805C92.4447,-341.271 93.633,-311.297 104,-288 108.67,-277.505 116.189,-267.613 123.857,-259.28"/>
<polygon fill="grey" stroke="grey" points="126.388,-261.698 130.863,-252.095 121.376,-256.812 126.388,-261.698"/>
</g>
<!-- 19 -->
<g id="node20" class="node"><title>19</title>
<path fill="none" stroke="#d8ac56" stroke-width="2" d="M374,-396C374,-396 344,-396 344,-396 338,-396 332,-390 332,-384 332,-384 332,-372 332,-372 332,-366 338,-360 344,-360 344,-360 374,-360 374,-360 380,-360 386,-366 386,-372 386,-372 386,-384 386,-384 386,-390 380,-396 374,-396"/>
<text text-anchor="middle" x="359" y="-375.5" font-family="sans" font-size="10.00">busco</text>
</g>
<!-- 19&#45;&gt;12 -->
<g id="edge24" class="edge"><title>19&#45;&gt;12</title>
<path fill="none" stroke="grey" stroke-width="2" d="M354.416,-359.871C347.911,-335.564 335.937,-290.819 328.229,-262.013"/>
<polygon fill="grey" stroke="grey" points="331.566,-260.945 325.6,-252.189 324.804,-262.754 331.566,-260.945"/>
</g>
<!-- 20&#45;&gt;12 -->
<g id="edge25" class="edge"><title>20&#45;&gt;12</title>
<path fill="none" stroke="grey" stroke-width="2" d="M411.645,-287.876C395.955,-278.724 376.443,-267.342 359.546,-257.485"/>
<polygon fill="grey" stroke="grey" points="360.87,-254.205 350.468,-252.19 357.342,-260.252 360.87,-254.205"/>
</g>
<!-- 21 -->
<g id="node22" class="node"><title>21</title>
<path fill="none" stroke="#5673d8" stroke-width="2" stroke-dasharray="5,2" d="M105.25,-612C105.25,-612 50.75,-612 50.75,-612 44.75,-612 38.75,-606 38.75,-600 38.75,-600 38.75,-588 38.75,-588 38.75,-582 44.75,-576 50.75,-576 50.75,-576 105.25,-576 105.25,-576 111.25,-576 117.25,-582 117.25,-588 117.25,-588 117.25,-600 117.25,-600 117.25,-606 111.25,-612 105.25,-612"/>
<text text-anchor="middle" x="78" y="-591.5" font-family="sans" font-size="10.00">remove_rRNA</text>
</g>
<!-- 21&#45;&gt;13 -->
<g id="edge26" class="edge"><title>21&#45;&gt;13</title>
<path fill="none" stroke="grey" stroke-width="2" d="M78,-575.697C78,-567.983 78,-558.712 78,-550.112"/>
<polygon fill="grey" stroke="grey" points="81.5001,-550.104 78,-540.104 74.5001,-550.104 81.5001,-550.104"/>
</g>
<!-- 22 -->
<g id="node23" class="node"><title>22</title>
<path fill="none" stroke="#5673d8" stroke-width="2" stroke-dasharray="5,2" d="M545.25,-612C545.25,-612 490.75,-612 490.75,-612 484.75,-612 478.75,-606 478.75,-600 478.75,-600 478.75,-588 478.75,-588 478.75,-582 484.75,-576 490.75,-576 490.75,-576 545.25,-576 545.25,-576 551.25,-576 557.25,-582 557.25,-588 557.25,-588 557.25,-600 557.25,-600 557.25,-606 551.25,-612 545.25,-612"/>
<text text-anchor="middle" x="518" y="-591.5" font-family="sans" font-size="10.00">remove_rRNA</text>
</g>
<!-- 22&#45;&gt;14 -->
<g id="edge27" class="edge"><title>22&#45;&gt;14</title>
<path fill="none" stroke="grey" stroke-width="2" d="M518,-575.697C518,-567.983 518,-558.712 518,-550.112"/>
<polygon fill="grey" stroke="grey" points="521.5,-550.104 518,-540.104 514.5,-550.104 521.5,-550.104"/>
</g>
<!-- 23&#45;&gt;15 -->
<g id="edge28" class="edge"><title>23&#45;&gt;15</title>
<path fill="none" stroke="grey" stroke-width="2" d="M443,-431.697C443,-423.983 443,-414.712 443,-406.112"/>
<polygon fill="grey" stroke="grey" points="446.5,-406.104 443,-396.104 439.5,-406.104 446.5,-406.104"/>
</g>
<!-- 23&#45;&gt;19 -->
<g id="edge32" class="edge"><title>23&#45;&gt;19</title>
<path fill="none" stroke="grey" stroke-width="2" d="M422.236,-431.697C411.759,-422.965 398.889,-412.24 387.5,-402.75"/>
<polygon fill="grey" stroke="grey" points="389.448,-399.817 379.525,-396.104 384.967,-405.195 389.448,-399.817"/>
</g>
<!-- 24&#45;&gt;16 -->
<g id="edge29" class="edge"><title>24&#45;&gt;16</title>
<path fill="none" stroke="grey" stroke-width="2" d="M130.831,-431.697C138.025,-423.305 146.797,-413.07 154.69,-403.861"/>
<polygon fill="grey" stroke="grey" points="157.489,-405.975 161.339,-396.104 152.174,-401.419 157.489,-405.975"/>
</g>
<!-- 24&#45;&gt;18 -->
<g id="edge31" class="edge"><title>24&#45;&gt;18</title>
<path fill="none" stroke="grey" stroke-width="2" d="M110.562,-431.697C108.111,-423.898 105.16,-414.509 102.432,-405.829"/>
<polygon fill="grey" stroke="grey" points="105.713,-404.595 99.3756,-396.104 99.035,-406.694 105.713,-404.595"/>
</g>
<!-- 25 -->
<g id="node26" class="node"><title>25</title>
<path fill="none" stroke="#568ad8" stroke-width="2" stroke-dasharray="5,2" d="M101.25,-684C101.25,-684 54.75,-684 54.75,-684 48.75,-684 42.75,-678 42.75,-672 42.75,-672 42.75,-660 42.75,-660 42.75,-654 48.75,-648 54.75,-648 54.75,-648 101.25,-648 101.25,-648 107.25,-648 113.25,-654 113.25,-660 113.25,-660 113.25,-672 113.25,-672 113.25,-678 107.25,-684 101.25,-684"/>
<text text-anchor="middle" x="78" y="-663.5" font-family="sans" font-size="10.00">trimmomatic</text>
</g>
<!-- 25&#45;&gt;21 -->
<g id="edge34" class="edge"><title>25&#45;&gt;21</title>
<path fill="none" stroke="grey" stroke-width="2" d="M78,-647.697C78,-639.983 78,-630.712 78,-622.112"/>
<polygon fill="grey" stroke="grey" points="81.5001,-622.104 78,-612.104 74.5001,-622.104 81.5001,-622.104"/>
</g>
<!-- 26 -->
<g id="node27" class="node"><title>26</title>
<path fill="none" stroke="#568ad8" stroke-width="2" stroke-dasharray="5,2" d="M541.25,-684C541.25,-684 494.75,-684 494.75,-684 488.75,-684 482.75,-678 482.75,-672 482.75,-672 482.75,-660 482.75,-660 482.75,-654 488.75,-648 494.75,-648 494.75,-648 541.25,-648 541.25,-648 547.25,-648 553.25,-654 553.25,-660 553.25,-660 553.25,-672 553.25,-672 553.25,-678 547.25,-684 541.25,-684"/>
<text text-anchor="middle" x="518" y="-663.5" font-family="sans" font-size="10.00">trimmomatic</text>
</g>
<!-- 26&#45;&gt;22 -->
<g id="edge35" class="edge"><title>26&#45;&gt;22</title>
<path fill="none" stroke="grey" stroke-width="2" d="M518,-647.697C518,-639.983 518,-630.712 518,-622.112"/>
<polygon fill="grey" stroke="grey" points="521.5,-622.104 518,-612.104 514.5,-622.104 521.5,-622.104"/>
</g>
<!-- 27 -->
<g id="node28" class="node"><title>27</title>
<path fill="none" stroke="#56d8b9" stroke-width="2" stroke-dasharray="5,2" d="M114,-756C114,-756 42,-756 42,-756 36,-756 30,-750 30,-744 30,-744 30,-732 30,-732 30,-726 36,-720 42,-720 42,-720 114,-720 114,-720 120,-720 126,-726 126,-732 126,-732 126,-744 126,-744 126,-750 120,-756 114,-756"/>
<text text-anchor="middle" x="78" y="-741" font-family="sans" font-size="10.00">run_rcorrector</text>
<text text-anchor="middle" x="78" y="-730" font-family="sans" font-size="10.00">sample: Macmini2</text>
</g>
<!-- 27&#45;&gt;25 -->
<g id="edge38" class="edge"><title>27&#45;&gt;25</title>
<path fill="none" stroke="grey" stroke-width="2" d="M78,-719.697C78,-711.983 78,-702.712 78,-694.112"/>
<polygon fill="grey" stroke="grey" points="81.5001,-694.104 78,-684.104 74.5001,-694.104 81.5001,-694.104"/>
</g>
<!-- 28 -->
<g id="node29" class="node"><title>28</title>
<path fill="none" stroke="#56d8b9" stroke-width="2" stroke-dasharray="5,2" d="M554,-756C554,-756 482,-756 482,-756 476,-756 470,-750 470,-744 470,-744 470,-732 470,-732 470,-726 476,-720 482,-720 482,-720 554,-720 554,-720 560,-720 566,-726 566,-732 566,-732 566,-744 566,-744 566,-750 560,-756 554,-756"/>
<text text-anchor="middle" x="518" y="-741" font-family="sans" font-size="10.00">run_rcorrector</text>
<text text-anchor="middle" x="518" y="-730" font-family="sans" font-size="10.00">sample: Macmini1</text>
</g>
<!-- 28&#45;&gt;26 -->
<g id="edge39" class="edge"><title>28&#45;&gt;26</title>
<path fill="none" stroke="grey" stroke-width="2" d="M518,-719.697C518,-711.983 518,-702.712 518,-694.112"/>
<polygon fill="grey" stroke="grey" points="521.5,-694.104 518,-684.104 514.5,-694.104 521.5,-694.104"/>
</g>
</g>
</svg>
