<?xml version="1.0" encoding="UTF-8" standalone="no"?>
<!DOCTYPE svg PUBLIC "-//W3C//DTD SVG 1.1//EN"
 "http://www.w3.org/Graphics/SVG/1.1/DTD/svg11.dtd">
<!-- Generated by graphviz version 2.30.1 (20150306.0020)
 -->
<!-- Title: snakemake_dag Pages: 1 -->
<svg width="653pt" height="476pt"
 viewBox="0.00 0.00 653.00 476.00" xmlns="http://www.w3.org/2000/svg" xmlns:xlink="http://www.w3.org/1999/xlink">
<g id="graph0" class="graph" transform="scale(1 1) rotate(0) translate(4 472)">
<title>snakemake_dag</title>
<polygon fill="white" stroke="white" points="-4,5 -4,-472 650,-472 650,5 -4,5"/>
<!-- 0 -->
<g id="node1" class="node"><title>0</title>
<path fill="none" stroke="#56a9d8" stroke-width="2" d="M403,-36C403,-36 373,-36 373,-36 367,-36 361,-30 361,-24 361,-24 361,-12 361,-12 361,-6 367,-0 373,-0 373,-0 403,-0 403,-0 409,-0 415,-6 415,-12 415,-12 415,-24 415,-24 415,-30 409,-36 403,-36"/>
<text text-anchor="middle" x="388" y="-15.5" font-family="sans" font-size="10.00">all</text>
</g>
<!-- 1 -->
<g id="node2" class="node"><title>1</title>
<path fill="none" stroke="#d87d56" stroke-width="2" d="M403,-108C403,-108 373,-108 373,-108 367,-108 361,-102 361,-96 361,-96 361,-84 361,-84 361,-78 367,-72 373,-72 373,-72 403,-72 403,-72 409,-72 415,-78 415,-84 415,-84 415,-96 415,-96 415,-102 409,-108 403,-108"/>
<text text-anchor="middle" x="388" y="-87.5" font-family="sans" font-size="10.00">report</text>
</g>
<!-- 1&#45;&gt;0 -->
<g id="edge1" class="edge"><title>1&#45;&gt;0</title>
<path fill="none" stroke="grey" stroke-width="2" d="M388,-71.6966C388,-63.9827 388,-54.7125 388,-46.1124"/>
<polygon fill="grey" stroke="grey" points="391.5,-46.1043 388,-36.1043 384.5,-46.1044 391.5,-46.1043"/>
</g>
<!-- 2 -->
<g id="node3" class="node"><title>2</title>
<path fill="none" stroke="#b6d856" stroke-width="2" d="M559,-180C559,-180 459,-180 459,-180 453,-180 447,-174 447,-168 447,-168 447,-156 447,-156 447,-150 453,-144 459,-144 459,-144 559,-144 559,-144 565,-144 571,-150 571,-156 571,-156 571,-168 571,-168 571,-174 565,-180 559,-180"/>
<text text-anchor="middle" x="509" y="-159.5" font-family="sans" font-size="10.00">plot_transrate_contigs</text>
</g>
<!-- 2&#45;&gt;1 -->
<g id="edge2" class="edge"><title>2&#45;&gt;1</title>
<path fill="none" stroke="grey" stroke-width="2" d="M479.4,-143.876C462.718,-134.225 441.751,-122.096 424.108,-111.889"/>
<polygon fill="grey" stroke="grey" points="425.634,-108.728 415.225,-106.75 422.129,-114.787 425.634,-108.728"/>
</g>
<!-- 3 -->
<g id="node4" class="node"><title>3</title>
<path fill="none" stroke="#d85656" stroke-width="2" stroke-dasharray="5,2" d="M633,-180C633,-180 601,-180 601,-180 595,-180 589,-174 589,-168 589,-168 589,-156 589,-156 589,-150 595,-144 601,-144 601,-144 633,-144 633,-144 639,-144 645,-150 645,-156 645,-156 645,-168 645,-168 645,-174 639,-180 633,-180"/>
<text text-anchor="middle" x="617" y="-159.5" font-family="sans" font-size="10.00">versions</text>
</g>
<!-- 3&#45;&gt;1 -->
<g id="edge3" class="edge"><title>3&#45;&gt;1</title>
<path fill="none" stroke="grey" stroke-width="2" d="M588.915,-147.528C585.932,-146.269 582.922,-145.067 580,-144 527.221,-124.733 464.095,-108.573 425.017,-99.3377"/>
<polygon fill="grey" stroke="grey" points="425.676,-95.8974 415.142,-97.0303 424.083,-102.714 425.676,-95.8974"/>
</g>
<!-- 4 -->
<g id="node5" class="node"><title>4</title>
<path fill="none" stroke="#56d8b9" stroke-width="2" d="M122.25,-396C122.25,-396 67.75,-396 67.75,-396 61.75,-396 55.75,-390 55.75,-384 55.75,-384 55.75,-372 55.75,-372 55.75,-366 61.75,-360 67.75,-360 67.75,-360 122.25,-360 122.25,-360 128.25,-360 134.25,-366 134.25,-372 134.25,-372 134.25,-384 134.25,-384 134.25,-390 128.25,-396 122.25,-396"/>
<text text-anchor="middle" x="95" y="-375.5" font-family="sans" font-size="10.00">fish_4_genes</text>
</g>
<!-- 4&#45;&gt;1 -->
<g id="edge4" class="edge"><title>4&#45;&gt;1</title>
<path fill="none" stroke="grey" stroke-width="2" d="M95.4534,-359.867C96.0929,-341.893 97.5897,-312.855 101,-288 110.7,-217.306 112.125,-182.817 172,-144 227.457,-108.047 305.318,-96.4779 350.832,-92.7586"/>
<polygon fill="grey" stroke="grey" points="351.135,-96.2458 360.853,-92.0245 350.624,-89.2645 351.135,-96.2458"/>
</g>
<!-- 5 -->
<g id="node6" class="node"><title>5</title>
<path fill="none" stroke="#b6d856" stroke-width="2" d="M293,-180C293,-180 193,-180 193,-180 187,-180 181,-174 181,-168 181,-168 181,-156 181,-156 181,-150 187,-144 193,-144 193,-144 293,-144 293,-144 299,-144 305,-150 305,-156 305,-156 305,-168 305,-168 305,-174 299,-180 293,-180"/>
<text text-anchor="middle" x="243" y="-159.5" font-family="sans" font-size="10.00">plot_transrate_contigs</text>
</g>
<!-- 5&#45;&gt;1 -->
<g id="edge5" class="edge"><title>5&#45;&gt;1</title>
<path fill="none" stroke="grey" stroke-width="2" d="M278.471,-143.876C300.626,-133.18 329.088,-119.44 351.445,-108.647"/>
<polygon fill="grey" stroke="grey" points="353.132,-111.719 360.616,-104.22 350.089,-105.415 353.132,-111.719"/>
</g>
<!-- 6 -->
<g id="node7" class="node"><title>6</title>
<path fill="none" stroke="#d8cb56" stroke-width="2" d="M379,-180C379,-180 335,-180 335,-180 329,-180 323,-174 323,-168 323,-168 323,-156 323,-156 323,-150 329,-144 335,-144 335,-144 379,-144 379,-144 385,-144 391,-150 391,-156 391,-156 391,-168 391,-168 391,-174 385,-180 379,-180"/>
<text text-anchor="middle" x="357" y="-159.5" font-family="sans" font-size="10.00">plot_busco</text>
</g>
<!-- 6&#45;&gt;1 -->
<g id="edge6" class="edge"><title>6&#45;&gt;1</title>
<path fill="none" stroke="grey" stroke-width="2" d="M364.663,-143.697C368.192,-135.728 372.456,-126.1 376.369,-117.264"/>
<polygon fill="grey" stroke="grey" points="379.576,-118.665 380.425,-108.104 373.176,-115.831 379.576,-118.665"/>
</g>
<!-- 7 -->
<g id="node8" class="node"><title>7</title>
<path fill="none" stroke="#56d892" stroke-width="2" d="M568.25,-252C568.25,-252 421.75,-252 421.75,-252 415.75,-252 409.75,-246 409.75,-240 409.75,-240 409.75,-228 409.75,-228 409.75,-222 415.75,-216 421.75,-216 421.75,-216 568.25,-216 568.25,-216 574.25,-216 580.25,-222 580.25,-228 580.25,-228 580.25,-240 580.25,-240 580.25,-246 574.25,-252 568.25,-252"/>
<text text-anchor="middle" x="495" y="-231.5" font-family="sans" font-size="10.00">summarize_transrate_assembly</text>
</g>
<!-- 7&#45;&gt;1 -->
<g id="edge7" class="edge"><title>7&#45;&gt;1</title>
<path fill="none" stroke="grey" stroke-width="2" d="M473.705,-215.995C462.281,-206.22 448.447,-193.273 438,-180 422.599,-160.432 409.041,-135.533 399.944,-117.05"/>
<polygon fill="grey" stroke="grey" points="403.095,-115.527 395.606,-108.032 396.786,-118.561 403.095,-115.527"/>
</g>
<!-- 7&#45;&gt;6 -->
<g id="edge16" class="edge"><title>7&#45;&gt;6</title>
<path fill="none" stroke="grey" stroke-width="2" d="M461.241,-215.876C442.78,-206.512 419.718,-194.814 399.983,-184.803"/>
<polygon fill="grey" stroke="grey" points="401.39,-181.592 390.888,-180.19 398.223,-187.835 401.39,-181.592"/>
</g>
<!-- 8 -->
<g id="node9" class="node"><title>8</title>
<path fill="none" stroke="#56d0d8" stroke-width="2" d="M628,-324C628,-324 554,-324 554,-324 548,-324 542,-318 542,-312 542,-312 542,-300 542,-300 542,-294 548,-288 554,-288 554,-288 628,-288 628,-288 634,-288 640,-294 640,-300 640,-300 640,-312 640,-312 640,-318 634,-324 628,-324"/>
<text text-anchor="middle" x="591" y="-303.5" font-family="sans" font-size="10.00">gather_transrate</text>
</g>
<!-- 8&#45;&gt;2 -->
<g id="edge8" class="edge"><title>8&#45;&gt;2</title>
<path fill="none" stroke="grey" stroke-width="2" d="M605.779,-287.916C620.065,-269.211 637.57,-238.841 623,-216 613.047,-200.396 597.179,-189.315 580.408,-181.471"/>
<polygon fill="grey" stroke="grey" points="581.599,-178.173 571.029,-177.439 578.834,-184.604 581.599,-178.173"/>
</g>
<!-- 8&#45;&gt;6 -->
<g id="edge12" class="edge"><title>8&#45;&gt;6</title>
<path fill="none" stroke="grey" stroke-width="2" d="M596.272,-287.812C601.146,-268.161 605.414,-236.119 589,-216 585.996,-212.317 467.392,-186.535 400.963,-172.333"/>
<polygon fill="grey" stroke="grey" points="401.678,-168.907 391.168,-170.242 400.217,-175.753 401.678,-168.907"/>
</g>
<!-- 8&#45;&gt;7 -->
<g id="edge17" class="edge"><title>8&#45;&gt;7</title>
<path fill="none" stroke="grey" stroke-width="2" d="M567.27,-287.697C555.063,-278.796 540.015,-267.823 526.816,-258.199"/>
<polygon fill="grey" stroke="grey" points="528.6,-255.168 518.457,-252.104 524.475,-260.824 528.6,-255.168"/>
</g>
<!-- 9 -->
<g id="node10" class="node"><title>9</title>
<path fill="none" stroke="#68d856" stroke-width="2" stroke-dasharray="5,2" d="M405,-468C405,-468 325,-468 325,-468 319,-468 313,-462 313,-456 313,-456 313,-444 313,-444 313,-438 319,-432 325,-432 325,-432 405,-432 405,-432 411,-432 417,-438 417,-444 417,-444 417,-456 417,-456 417,-462 411,-468 405,-468"/>
<text text-anchor="middle" x="365" y="-453" font-family="sans" font-size="10.00">trim_and_trinity</text>
<text text-anchor="middle" x="365" y="-442" font-family="sans" font-size="10.00">sample: Macmini1</text>
</g>
<!-- 9&#45;&gt;4 -->
<g id="edge9" class="edge"><title>9&#45;&gt;4</title>
<path fill="none" stroke="grey" stroke-width="2" d="M312.821,-438.01C269.994,-428.645 207.635,-414.225 144.241,-395.919"/>
<polygon fill="grey" stroke="grey" points="145.053,-392.51 134.473,-393.069 143.092,-399.23 145.053,-392.51"/>
</g>
<!-- 14 -->
<g id="node15" class="node"><title>14</title>
<path fill="none" stroke="#d8a456" stroke-width="2" d="M480,-396C480,-396 422,-396 422,-396 416,-396 410,-390 410,-384 410,-384 410,-372 410,-372 410,-366 416,-360 422,-360 422,-360 480,-360 480,-360 486,-360 492,-366 492,-372 492,-372 492,-384 492,-384 492,-390 486,-396 480,-396"/>
<text text-anchor="middle" x="451" y="-375.5" font-family="sans" font-size="10.00">run_transrate</text>
</g>
<!-- 9&#45;&gt;14 -->
<g id="edge25" class="edge"><title>9&#45;&gt;14</title>
<path fill="none" stroke="grey" stroke-width="2" d="M386.258,-431.697C397.089,-422.881 410.418,-412.032 422.16,-402.474"/>
<polygon fill="grey" stroke="grey" points="424.44,-405.132 429.986,-396.104 420.021,-399.703 424.44,-405.132"/>
</g>
<!-- 16 -->
<g id="node17" class="node"><title>16</title>
<path fill="none" stroke="#56d86b" stroke-width="2" d="M380,-396C380,-396 350,-396 350,-396 344,-396 338,-390 338,-384 338,-384 338,-372 338,-372 338,-366 344,-360 350,-360 350,-360 380,-360 380,-360 386,-360 392,-366 392,-372 392,-372 392,-384 392,-384 392,-390 386,-396 380,-396"/>
<text text-anchor="middle" x="365" y="-375.5" font-family="sans" font-size="10.00">busco</text>
</g>
<!-- 9&#45;&gt;16 -->
<g id="edge27" class="edge"><title>9&#45;&gt;16</title>
<path fill="none" stroke="grey" stroke-width="2" d="M365,-431.697C365,-423.983 365,-414.712 365,-406.112"/>
<polygon fill="grey" stroke="grey" points="368.5,-406.104 365,-396.104 361.5,-406.104 368.5,-406.104"/>
</g>
<!-- 10 -->
<g id="node11" class="node"><title>10</title>
<path fill="none" stroke="#68d856" stroke-width="2" stroke-dasharray="5,2" d="M135,-468C135,-468 55,-468 55,-468 49,-468 43,-462 43,-456 43,-456 43,-444 43,-444 43,-438 49,-432 55,-432 55,-432 135,-432 135,-432 141,-432 147,-438 147,-444 147,-444 147,-456 147,-456 147,-462 141,-468 135,-468"/>
<text text-anchor="middle" x="95" y="-453" font-family="sans" font-size="10.00">trim_and_trinity</text>
<text text-anchor="middle" x="95" y="-442" font-family="sans" font-size="10.00">sample: Macmini2</text>
</g>
<!-- 10&#45;&gt;4 -->
<g id="edge10" class="edge"><title>10&#45;&gt;4</title>
<path fill="none" stroke="grey" stroke-width="2" d="M95,-431.697C95,-423.983 95,-414.712 95,-406.112"/>
<polygon fill="grey" stroke="grey" points="98.5001,-406.104 95,-396.104 91.5001,-406.104 98.5001,-406.104"/>
</g>
<!-- 15 -->
<g id="node16" class="node"><title>15</title>
<path fill="none" stroke="#d8a456" stroke-width="2" d="M223,-396C223,-396 165,-396 165,-396 159,-396 153,-390 153,-384 153,-384 153,-372 153,-372 153,-366 159,-360 165,-360 165,-360 223,-360 223,-360 229,-360 235,-366 235,-372 235,-372 235,-384 235,-384 235,-390 229,-396 223,-396"/>
<text text-anchor="middle" x="194" y="-375.5" font-family="sans" font-size="10.00">run_transrate</text>
</g>
<!-- 10&#45;&gt;15 -->
<g id="edge26" class="edge"><title>10&#45;&gt;15</title>
<path fill="none" stroke="grey" stroke-width="2" d="M119.218,-431.876C131.923,-422.893 147.664,-411.763 161.423,-402.034"/>
<polygon fill="grey" stroke="grey" points="163.544,-404.821 169.689,-396.19 159.503,-399.105 163.544,-404.821"/>
</g>
<!-- 19 -->
<g id="node20" class="node"><title>19</title>
<path fill="none" stroke="#56d86b" stroke-width="2" d="M42,-324C42,-324 12,-324 12,-324 6,-324 0,-318 0,-312 0,-312 0,-300 0,-300 0,-294 6,-288 12,-288 12,-288 42,-288 42,-288 48,-288 54,-294 54,-300 54,-300 54,-312 54,-312 54,-318 48,-324 42,-324"/>
<text text-anchor="middle" x="27" y="-303.5" font-family="sans" font-size="10.00">busco</text>
</g>
<!-- 10&#45;&gt;19 -->
<g id="edge30" class="edge"><title>10&#45;&gt;19</title>
<path fill="none" stroke="grey" stroke-width="2" d="M74.5621,-431.794C64.4945,-422.246 53.0362,-409.573 46,-396 36.0311,-376.77 31.2905,-352.613 29.0373,-334.32"/>
<polygon fill="grey" stroke="grey" points="32.5108,-333.885 27.9774,-324.309 25.5498,-334.622 32.5108,-333.885"/>
</g>
<!-- 11 -->
<g id="node12" class="node"><title>11</title>
<path fill="none" stroke="#56d0d8" stroke-width="2" d="M326,-324C326,-324 252,-324 252,-324 246,-324 240,-318 240,-312 240,-312 240,-300 240,-300 240,-294 246,-288 252,-288 252,-288 326,-288 326,-288 332,-288 338,-294 338,-300 338,-300 338,-312 338,-312 338,-318 332,-324 326,-324"/>
<text text-anchor="middle" x="289" y="-303.5" font-family="sans" font-size="10.00">gather_transrate</text>
</g>
<!-- 11&#45;&gt;5 -->
<g id="edge11" class="edge"><title>11&#45;&gt;5</title>
<path fill="none" stroke="grey" stroke-width="2" d="M281.085,-287.553C276.613,-277.321 271.113,-264.071 267,-252 260.01,-231.486 253.699,-207.771 249.305,-189.981"/>
<polygon fill="grey" stroke="grey" points="252.706,-189.155 246.949,-180.261 245.903,-190.804 252.706,-189.155"/>
</g>
<!-- 11&#45;&gt;6 -->
<g id="edge15" class="edge"><title>11&#45;&gt;6</title>
<path fill="none" stroke="grey" stroke-width="2" d="M287.751,-287.929C287.121,-269.236 288.312,-238.876 300,-216 305.668,-204.907 314.645,-194.931 323.814,-186.705"/>
<polygon fill="grey" stroke="grey" points="326.109,-189.347 331.491,-180.221 321.593,-183.999 326.109,-189.347"/>
</g>
<!-- 11&#45;&gt;7 -->
<g id="edge18" class="edge"><title>11&#45;&gt;7</title>
<path fill="none" stroke="grey" stroke-width="2" d="M338.08,-288.322C367.181,-278.434 404.279,-265.827 435.097,-255.355"/>
<polygon fill="grey" stroke="grey" points="436.522,-258.568 444.864,-252.036 434.27,-251.94 436.522,-258.568"/>
</g>
<!-- 12 -->
<g id="node13" class="node"><title>12</title>
<path fill="none" stroke="#8fd856" stroke-width="2" d="M379,-252C379,-252 321,-252 321,-252 315,-252 309,-246 309,-240 309,-240 309,-228 309,-228 309,-222 315,-216 321,-216 321,-216 379,-216 379,-216 385,-216 391,-222 391,-228 391,-228 391,-240 391,-240 391,-246 385,-252 379,-252"/>
<text text-anchor="middle" x="350" y="-231.5" font-family="sans" font-size="10.00">gather_busco</text>
</g>
<!-- 12&#45;&gt;6 -->
<g id="edge13" class="edge"><title>12&#45;&gt;6</title>
<path fill="none" stroke="grey" stroke-width="2" d="M351.73,-215.697C352.502,-207.983 353.429,-198.712 354.289,-190.112"/>
<polygon fill="grey" stroke="grey" points="357.777,-190.403 355.29,-180.104 350.812,-189.706 357.777,-190.403"/>
</g>
<!-- 13 -->
<g id="node14" class="node"><title>13</title>
<path fill="none" stroke="#8fd856" stroke-width="2" d="M195,-252C195,-252 137,-252 137,-252 131,-252 125,-246 125,-240 125,-240 125,-228 125,-228 125,-222 131,-216 137,-216 137,-216 195,-216 195,-216 201,-216 207,-222 207,-228 207,-228 207,-240 207,-240 207,-246 201,-252 195,-252"/>
<text text-anchor="middle" x="166" y="-231.5" font-family="sans" font-size="10.00">gather_busco</text>
</g>
<!-- 13&#45;&gt;6 -->
<g id="edge14" class="edge"><title>13&#45;&gt;6</title>
<path fill="none" stroke="grey" stroke-width="2" d="M207.281,-218.623C234.947,-208.895 272.395,-195.554 313.408,-180.173"/>
<polygon fill="grey" stroke="grey" points="314.645,-183.447 322.771,-176.649 312.179,-176.895 314.645,-183.447"/>
</g>
<!-- 14&#45;&gt;8 -->
<g id="edge19" class="edge"><title>14&#45;&gt;8</title>
<path fill="none" stroke="grey" stroke-width="2" d="M485.248,-359.876C504.061,-350.469 527.585,-338.708 547.666,-328.667"/>
<polygon fill="grey" stroke="grey" points="549.241,-331.792 556.62,-324.19 546.111,-325.531 549.241,-331.792"/>
</g>
<!-- 17 -->
<g id="node18" class="node"><title>17</title>
<path fill="none" stroke="#567bd8" stroke-width="2" d="M495,-324C495,-324 407,-324 407,-324 401,-324 395,-318 395,-312 395,-312 395,-300 395,-300 395,-294 401,-288 407,-288 407,-288 495,-288 495,-288 501,-288 507,-294 507,-300 507,-300 507,-312 507,-312 507,-318 501,-324 495,-324"/>
<text text-anchor="middle" x="451" y="-303.5" font-family="sans" font-size="10.00">busco_on_transrate</text>
</g>
<!-- 14&#45;&gt;17 -->
<g id="edge28" class="edge"><title>14&#45;&gt;17</title>
<path fill="none" stroke="grey" stroke-width="2" d="M451,-359.697C451,-351.983 451,-342.712 451,-334.112"/>
<polygon fill="grey" stroke="grey" points="454.5,-334.104 451,-324.104 447.5,-334.104 454.5,-334.104"/>
</g>
<!-- 15&#45;&gt;11 -->
<g id="edge20" class="edge"><title>15&#45;&gt;11</title>
<path fill="none" stroke="grey" stroke-width="2" d="M217.483,-359.697C229.563,-350.796 244.454,-339.823 257.516,-330.199"/>
<polygon fill="grey" stroke="grey" points="259.813,-332.854 265.787,-324.104 255.66,-327.219 259.813,-332.854"/>
</g>
<!-- 18 -->
<g id="node19" class="node"><title>18</title>
<path fill="none" stroke="#567bd8" stroke-width="2" d="M210,-324C210,-324 122,-324 122,-324 116,-324 110,-318 110,-312 110,-312 110,-300 110,-300 110,-294 116,-288 122,-288 122,-288 210,-288 210,-288 216,-288 222,-294 222,-300 222,-300 222,-312 222,-312 222,-318 216,-324 210,-324"/>
<text text-anchor="middle" x="166" y="-303.5" font-family="sans" font-size="10.00">busco_on_transrate</text>
</g>
<!-- 15&#45;&gt;18 -->
<g id="edge29" class="edge"><title>15&#45;&gt;18</title>
<path fill="none" stroke="grey" stroke-width="2" d="M187.079,-359.697C183.925,-351.813 180.122,-342.304 176.619,-333.546"/>
<polygon fill="grey" stroke="grey" points="179.805,-332.089 172.842,-324.104 173.306,-334.689 179.805,-332.089"/>
</g>
<!-- 16&#45;&gt;12 -->
<g id="edge21" class="edge"><title>16&#45;&gt;12</title>
<path fill="none" stroke="grey" stroke-width="2" d="M363.191,-359.871C360.634,-335.67 355.938,-291.211 352.894,-262.393"/>
<polygon fill="grey" stroke="grey" points="356.347,-261.766 351.816,-252.189 349.386,-262.502 356.347,-261.766"/>
</g>
<!-- 17&#45;&gt;12 -->
<g id="edge22" class="edge"><title>17&#45;&gt;12</title>
<path fill="none" stroke="grey" stroke-width="2" d="M426.293,-287.876C413.331,-278.893 397.272,-267.763 383.235,-258.034"/>
<polygon fill="grey" stroke="grey" points="385.015,-255.009 374.802,-252.19 381.028,-260.763 385.015,-255.009"/>
</g>
<!-- 18&#45;&gt;13 -->
<g id="edge23" class="edge"><title>18&#45;&gt;13</title>
<path fill="none" stroke="grey" stroke-width="2" d="M166,-287.697C166,-279.983 166,-270.712 166,-262.112"/>
<polygon fill="grey" stroke="grey" points="169.5,-262.104 166,-252.104 162.5,-262.104 169.5,-262.104"/>
</g>
<!-- 19&#45;&gt;13 -->
<g id="edge24" class="edge"><title>19&#45;&gt;13</title>
<path fill="none" stroke="grey" stroke-width="2" d="M54.1306,-291.337C73.7126,-281.476 100.551,-267.96 123.032,-256.639"/>
<polygon fill="grey" stroke="grey" points="124.688,-259.723 132.045,-252.099 121.54,-253.471 124.688,-259.723"/>
</g>
</g>
</svg>
